<svg width="256" height="256" viewBox="0 0 256 256" fill="none" xmlns="http://www.w3.org/2000/svg">
<g filter="url(#filter0_d)">
<path d="M216.909 192.542L215.212 193.522C211.881 195.447 207.621 194.323 205.674 191.005L130.648 63.2181L67.7482 171.133C65.0283 175.8 68.3945 181.658 73.7959 181.658H130.648L143.471 193.533C144.806 194.768 143.932 197 142.112 197H46.1755C40.7756 197 37.4091 191.145 40.1261 186.478L124.61 41.3706C127.307 36.7378 133.998 36.7323 136.703 41.3607L219.45 182.949C221.408 186.298 220.268 190.601 216.909 192.542Z" fill="url(#paint0_linear)"/>
</g>
<defs>
<filter id="filter0_d" x="35.165" y="37.8927" width="189.243" height="167.107" filterUnits="userSpaceOnUse" color-interpolation-filters="sRGB">
<feFlood flood-opacity="0" result="BackgroundImageFix"/>
<feColorMatrix in="SourceAlpha" type="matrix" values="0 0 0 0 0 0 0 0 0 0 0 0 0 0 0 0 0 0 127 0" result="hardAlpha"/>
<feOffset dy="4"/>
<feGaussianBlur stdDeviation="2"/>
<feComposite in2="hardAlpha" operator="out"/>
<feColorMatrix type="matrix" values="0 0 0 0 0 0 0 0 0 0 0 0 0 0 0 0 0 0 0.25 0"/>
<feBlend mode="normal" in2="BackgroundImageFix" result="effect1_dropShadow"/>
<feBlend mode="normal" in="SourceGraphic" in2="effect1_dropShadow" result="shape"/>
</filter>
<linearGradient id="paint0_linear" x1="171.148" y1="8.60075" x2="33.6803" y2="210.185" gradientUnits="userSpaceOnUse">
<stop stop-color="#4AB0CF"/>
<stop offset="1" stop-color="#49158C"/>
</linearGradient>
</defs>
</svg>
