<svg id="visual" viewBox="0 0 900 600" width="900" height="600" xmlns="http://www.w3.org/2000/svg" xmlns:xlink="http://www.w3.org/1999/xlink" version="1.1"><rect x="0" y="0" width="900" height="600" fill="#2a2a2a"></rect><defs><linearGradient id="grad1_0" x1="33.3%" y1="0%" x2="100%" y2="100%"><stop offset="20%" stop-color="#2a2a2a" stop-opacity="1"></stop><stop offset="80%" stop-color="#2a2a2a" stop-opacity="1"></stop></linearGradient></defs><defs><linearGradient id="grad2_0" x1="0%" y1="0%" x2="66.7%" y2="100%"><stop offset="20%" stop-color="#2a2a2a" stop-opacity="1"></stop><stop offset="80%" stop-color="#2a2a2a" stop-opacity="1"></stop></linearGradient></defs><g transform="translate(900, 0)"><path d="M0 162.2C-15.9 139.6 -31.9 117 -42.5 102.6C-53.1 88.1 -58.4 81.8 -78.5 78.5C-98.6 75.1 -133.5 74.7 -149.9 62.1C-166.3 49.5 -164.3 24.7 -162.2 0L0 0Z" fill="#ff2145"></path></g><g transform="translate(0, 600)"><path d="M0 -162.2C25.9 -164.9 51.8 -167.6 62.1 -149.9C72.4 -132.2 67 -94 76.4 -76.4C85.7 -58.8 109.8 -61.7 126.6 -52.4C143.3 -43.1 152.8 -21.6 162.2 0L0 0Z" fill="#ff2145"></path></g></svg>