<svg id="visual" viewBox="0 0 1920 1080" width="1920" height="1080" xmlns="http://www.w3.org/2000/svg" xmlns:xlink="http://www.w3.org/1999/xlink" version="1.1"><path d="M0 94L45.7 86.7C91.3 79.3 182.7 64.7 274.2 65.8C365.7 67 457.3 84 548.8 91.8C640.3 99.7 731.7 98.3 823 84.2C914.3 70 1005.7 43 1097 39.2C1188.3 35.3 1279.7 54.7 1371.2 57.3C1462.7 60 1554.3 46 1645.8 35.7C1737.3 25.3 1828.7 18.7 1874.3 15.3L1920 12L1920 0L1874.3 0C1828.7 0 1737.3 0 1645.8 0C1554.3 0 1462.7 0 1371.2 0C1279.7 0 1188.3 0 1097 0C1005.7 0 914.3 0 823 0C731.7 0 640.3 0 548.8 0C457.3 0 365.7 0 274.2 0C182.7 0 91.3 0 45.7 0L0 0Z" fill="#1b2026" stroke-linecap="round" stroke-linejoin="miter"></path></svg>