<svg width="428" height="279" viewBox="0 0 428 279" fill="none" xmlns="http://www.w3.org/2000/svg">
<path d="M188.6 33.8073C184.955 27.3963 187.197 19.2443 193.608 15.5995C200.019 11.9547 208.171 14.1972 211.816 20.6083L342.269 250.069C345.225 255.269 343.406 261.881 338.206 264.838C330.584 269.171 320.892 266.505 316.559 258.883L188.6 33.8073Z" fill="url(#paint0_linear)" fill-opacity="0.74"/>
<rect x="229" y="35.199" width="26.7062" height="271.972" rx="13.3531" transform="rotate(-29.619 229 35.199)" fill="url(#paint1_linear)" fill-opacity="0.36"/>
<rect x="277" y="47.199" width="26.7062" height="257.42" rx="13.3531" transform="rotate(-29.619 277 47.199)" fill="url(#paint2_linear)"/>
<g filter="url(#filter0_d)">
<path d="M302.409 261.52L292.019 267.522C288.688 269.447 284.428 268.323 282.48 265.006L158 53L51.6351 235.475C48.915 240.141 52.2812 246 57.6827 246H158L181.255 267.532C182.59 268.768 181.715 271 179.896 271H12.6759C7.27588 271 3.90946 265.144 6.62662 260.478L151.962 10.8697C154.66 6.23713 161.35 6.23161 164.055 10.8598L304.95 251.926C306.908 255.276 305.768 259.579 302.409 261.52Z" fill="url(#paint3_linear)"/>
</g>
<defs>
<filter id="filter0_d" x="1.66541" y="7.39197" width="308.242" height="271.608" filterUnits="userSpaceOnUse" color-interpolation-filters="sRGB">
<feFlood flood-opacity="0" result="BackgroundImageFix"/>
<feColorMatrix in="SourceAlpha" type="matrix" values="0 0 0 0 0 0 0 0 0 0 0 0 0 0 0 0 0 0 127 0" result="hardAlpha"/>
<feOffset dy="4"/>
<feGaussianBlur stdDeviation="2"/>
<feComposite in2="hardAlpha" operator="out"/>
<feColorMatrix type="matrix" values="0 0 0 0 0 0 0 0 0 0 0 0 0 0 0 0 0 0 0.25 0"/>
<feBlend mode="normal" in2="BackgroundImageFix" result="effect1_dropShadow"/>
<feBlend mode="normal" in="SourceGraphic" in2="effect1_dropShadow" result="shape"/>
</filter>
<linearGradient id="paint0_linear" x1="182" y1="-10" x2="359" y2="309" gradientUnits="userSpaceOnUse">
<stop stop-color="#8C1564"/>
<stop offset="1" stop-color="#0029FD"/>
</linearGradient>
<linearGradient id="paint1_linear" x1="242.353" y1="35.199" x2="242.353" y2="307.171" gradientUnits="userSpaceOnUse">
<stop stop-color="#14C3FA"/>
<stop offset="1" stop-color="#53F838"/>
</linearGradient>
<linearGradient id="paint2_linear" x1="291.526" y1="347.407" x2="295.385" y2="14.8608" gradientUnits="userSpaceOnUse">
<stop stop-color="#E8A2B5"/>
<stop offset="1" stop-color="#333D79"/>
</linearGradient>
<linearGradient id="paint3_linear" x1="224" y1="-36" x2="-9.24433e-06" y2="292.5" gradientUnits="userSpaceOnUse">
<stop stop-color="#4AB0CF"/>
<stop offset="1" stop-color="#49158C"/>
</linearGradient>
</defs>
</svg>
