<svg id="visual" viewBox="0 0 1920 1080" width="1920" height="1080" xmlns="http://www.w3.org/2000/svg" xmlns:xlink="http://www.w3.org/1999/xlink" version="1.1"><path d="M0 1016L45.7 1016.8C91.3 1017.7 182.7 1019.3 274.2 1022.2C365.7 1025 457.3 1029 548.8 1024.2C640.3 1019.3 731.7 1005.7 823 1000.8C914.3 996 1005.7 1000 1097 1005C1188.3 1010 1279.7 1016 1371.2 1025.7C1462.7 1035.3 1554.3 1048.7 1645.8 1048.5C1737.3 1048.3 1828.7 1034.7 1874.3 1027.8L1920 1021L1920 1081L1874.3 1081C1828.7 1081 1737.3 1081 1645.8 1081C1554.3 1081 1462.7 1081 1371.2 1081C1279.7 1081 1188.3 1081 1097 1081C1005.7 1081 914.3 1081 823 1081C731.7 1081 640.3 1081 548.8 1081C457.3 1081 365.7 1081 274.2 1081C182.7 1081 91.3 1081 45.7 1081L0 1081Z" fill="#1b2026" stroke-linecap="round" stroke-linejoin="miter"></path></svg>